# xmcd
#
# Track frame offsets: 
#        150
#        12035
#        25829
#        39142
#        49713
#        63908
#        76718
#        89139
#        100813
#        115007
#        127395
#        141869
#        155023
#        166482
#        180967
#        196662
#        211313
#        224389
#        238429
#        255268
#        266628
#
# Disc length: 3753 seconds
#
# Revision: 0
# Processed by: cddbd v1.5.2PL0 Copyright (c) Steve Scherf et al.
# Submitted via: ExactAudioCopy v1.0b4
#
DISCID=1c0ea715
DTITLE=Don Williams - Visions * Expressions * Portrait * CD 1
DYEAR=2013
DGENRE=Country
TTITLE0=Time On My Hands
TTITLE1=I'll Forgive But I'll Never Forget
TTITLE2=I'm Getting Good At Missing You
TTITLE3=In The Mornin'
TTITLE4=Missing You, Missing Me
TTITLE5=Some Broken Hearts Never Mend
TTITLE6=Fallin' In Love Again
TTITLE7=We Can Sing
TTITLE8=I'll Need Someone To Hold Me (When I Cry)
TTITLE9=Expert At Everything
TTITLE10=Cup O' Tea
TTITLE11=I Would Like To See You Again
TTITLE12=You've Got A Hold On Me
TTITLE13=Tears Of The Lonely
TTITLE14=All I'm Missing Is You
TTITLE15=Tulsa Time
TTITLE16=Lay Down Beside Me
TTITLE17=Give It To Me
TTITLE18=Not A Chance
TTITLE19=It Must Be Love
TTITLE20=When I'm With You
EXTD=
EXTT0=
EXTT1=
EXTT2=
EXTT3=
EXTT4=
EXTT5=
EXTT6=
EXTT7=
EXTT8=
EXTT9=
EXTT10=
EXTT11=
EXTT12=
EXTT13=
EXTT14=
EXTT15=
EXTT16=
EXTT17=
EXTT18=
EXTT19=
EXTT20=
PLAYORDER=
